<svg width="485" height="485" xmlns="http://www.w3.org/2000/svg" xmlns:xlink="http://www.w3.org/1999/xlink" xml:space="preserve" overflow="hidden"><defs><clipPath id="clip0"><rect x="699" y="199" width="485" height="485"/></clipPath></defs><g clip-path="url(#clip0)" transform="translate(-699 -199)"><path d="M911.188 335.406 992.021 335.406 992.021 320.25C992.021 309.135 982.927 300.042 971.812 300.042L759.625 300.042C748.51 300.042 739.417 309.135 739.417 320.25L739.417 456.656C739.417 467.771 748.51 476.865 759.625 476.865L789.938 476.865 789.938 527.385 840.458 476.865 870.771 476.865 870.771 375.823C870.771 353.594 888.958 335.406 911.188 335.406Z" fill="#335E31"/><path d="M1123.38 355.615 911.188 355.615C900.073 355.615 890.979 364.708 890.979 375.823L890.979 512.229C890.979 523.344 900.073 532.438 911.188 532.438L1042.54 532.438 1093.06 582.958 1093.06 532.438 1123.38 532.438C1134.49 532.438 1143.58 523.344 1143.58 512.229L1143.58 375.823C1143.58 364.708 1134.49 355.615 1123.38 355.615Z" fill="#335E31"/></g></svg>