<svg width="1107" height="1330" xmlns="http://www.w3.org/2000/svg" xmlns:xlink="http://www.w3.org/1999/xlink" xml:space="preserve" overflow="hidden"><defs><clipPath id="clip0"><rect x="1228" y="790" width="1107" height="1330"/></clipPath></defs><g clip-path="url(#clip0)" transform="translate(-1228 -790)"><path d="M530.328 1104.78C525.383 1102.7 517.836 1097.76 513.933 1093.85 499.62 1080.32 497.798 1074.34 496.497 1032.44L495.196 993.674 471.254 988.99C425.453 979.623 375.747 958.546 332.548 929.923 302.101 909.628 249.794 857.066 228.714 825.581 201.13 783.948 181.352 737.632 170.422 688.714 165.998 667.897 165.217 651.504 163.395 540.397 161.313 402.487 160.012 388.176 143.878 339.778 124.1 279.931 94.4333 233.354 45.5087 184.436 2.83016 142.282-1.85405 133.176-1.85405 95.4457-1.85405 72.2873-1.07348 67.8644 5.17267 54.8538 18.9646 27.0117 46.2892 6.45542 77.2577 0.470699 97.2957-3.17179 1005.52-3.17179 1026.34 0.731394 1056 6.19553 1083.33 27.0117 1097.12 54.8538 1103.37 67.8644 1104.15 72.2873 1104.15 95.4457 1104.15 132.915 1098.94 142.803 1059.13 182.094 1025.3 215.4 1010.2 234.395 991.985 265.099 969.085 303.349 953.731 345.242 945.403 390.779 941.499 410.814 940.459 438.656 938.898 540.397 937.336 651.764 936.555 667.897 931.871 688.714 914.435 766.254 881.385 825.841 824.654 882.826 768.443 938.77 704.165 974.158 631.039 988.99L607.097 993.674 605.796 1032.44C604.495 1074.34 602.673 1080.32 588.36 1093.85 573.266 1108.42 549.065 1112.85 530.328 1104.78Z" fill="#335E31" fill-rule="evenodd" transform="matrix(1 0 0 -1 1230 1899)"/><path d="M-1.8542 163.211C-1.8542 154.59 14.2815 115.663 25.2128 98.1596 69.9768 26.5773 156.903-12.0878 238.103 3.58764 295.099 14.5598 342.726 46.4325 374.998 95.2861 386.449 112.529 403.887 152.761 404.147 162.689 404.147 166.868 392.695 167.129 201.146 167.129 24.1714 167.129-1.8542 166.607-1.8542 163.211Z" fill="#335E31" fill-rule="evenodd" transform="matrix(1 0 0 -1 1580 2120)"/></g></svg>