<svg width="413" height="412" xmlns="http://www.w3.org/2000/svg" xmlns:xlink="http://www.w3.org/1999/xlink" xml:space="preserve" overflow="hidden"><defs><clipPath id="clip0"><rect x="-75" y="217" width="413" height="412"/></clipPath></defs><g clip-path="url(#clip0)" transform="translate(75 -217)"><path d="M274.667 128.75C274.667 166.674 243.924 197.417 206 197.417 168.076 197.417 137.333 166.674 137.333 128.75 137.333 90.8264 168.076 60.0833 206 60.0833 243.924 60.0833 274.667 90.8264 274.667 128.75Z" fill="#335E31" transform="matrix(1.00243 0 0 1 -75 217)"/><path d="M343.333 351.917 343.333 283.25C343.333 272.95 338.183 262.65 329.6 255.783 310.717 240.333 286.683 230.033 262.65 223.167 245.483 218.017 226.6 214.583 206 214.583 187.117 214.583 168.233 218.017 149.35 223.167 125.317 230.033 101.283 242.05 82.4 255.783 73.8167 262.65 68.6667 272.95 68.6667 283.25L68.6667 351.917 343.333 351.917Z" fill="#335E31" transform="matrix(1.00243 0 0 1 -75 217)"/></g></svg>